<?xml version="1.0" encoding="utf-8"?>
<!-- Generator: Adobe Illustrator 18.1.0, SVG Export Plug-In . SVG Version: 6.00 Build 0)  -->
<!DOCTYPE svg PUBLIC "-//W3C//DTD SVG 1.1//EN" "http://www.w3.org/Graphics/SVG/1.1/DTD/svg11.dtd">
<svg version="1.1" xmlns="http://www.w3.org/2000/svg" xmlns:xlink="http://www.w3.org/1999/xlink" x="0px" y="0px"
	 viewBox="0 0 1440 1224" style="enable-background:new 0 0 1440 1224;" xml:space="preserve">
<style type="text/css">
	.st0{display:none;}
	.st1{display:inline;fill:none;stroke:#000000;stroke-miterlimit:10;}
	.st2{fill:#009B83;}
	.st3{fill:#F58711;}
	.st4{fill:none;stroke:#FFFFFF;stroke-width:12;stroke-miterlimit:10;}
</style>
<g id="Layer_1" class="st0">
	
		<image style="display:inline;overflow:visible;opacity:0.49;" width="450" height="449" xlink:href="../../../../Library/Caches/TemporaryItems/stock-vector--musical-instruments-vector-illustrations-flat-icons-and-elements-set-195300647.jpg"  transform="matrix(3.7501 0 0 3.7501 521 -868)">
	</image>
	<path class="st1" d="M567.7-413.5h250.8v-118.6c0,0-12.8-46.1-66.5-38.5l-32.6-0.8c0,0-8.7-3.1-8.4-32.8c0,0-9.1-32.9-47-26.7
		l-66.5-0.8c0,0-30.6,11-28,57.1L567.7-413.5z"/>
</g>
<g id="Layer_2">
	<ellipse class="st2" cx="802.1" cy="822.7" rx="269.1" ry="259.3"/>
	<circle class="st3" cx="803.1" cy="821.7" r="224.1"/>
	<line class="st4" x1="801" y1="455" x2="801" y2="563"/>
	<line class="st4" x1="602.3" y1="996.4" x2="533" y2="1128.4"/>
	<line class="st4" x1="988.3" y1="1009.9" x2="1047.3" y2="1128.4"/>
	<line class="st4" x1="387.3" y1="315.2" x2="399" y2="1128.3"/>
	<line class="st4" x1="473.7" y1="213" x2="304.8" y2="401.6"/>
	<line class="st4" x1="397.4" y1="989" x2="268.4" y2="1116.6"/>
	<line class="st4" x1="398.3" y1="988.1" x2="520" y2="1120.1"/>
	
		<ellipse transform="matrix(0.9487 0.3161 -0.3161 0.9487 84.9704 -144.9845)" class="st3" cx="489.4" cy="189.4" rx="161.1" ry="82.5"/>
	<path class="st2" d="M473.7,445.4l72.5-130.3c0,0,119.2-6.6,198,107.1L672,556.3"/>
	<path class="st2" d="M934.9,545.7l-67.8-129c0,0,51.3-99,188.8-93.5l85.7,134.2"/>
	
		<ellipse transform="matrix(0.924 0.3824 -0.3824 0.924 234.9608 -179.7338)" class="st3" cx="569.7" cy="501.3" rx="112.4" ry="41.9"/>
	
		<ellipse transform="matrix(0.9196 -0.3929 0.3929 0.9196 -113.5784 448.2755)" class="st3" cx="1038.2" cy="501.6" rx="112.4" ry="38.1"/>
	<line class="st4" x1="928.1" y1="454.3" x2="675.3" y2="468.2"/>
	<g>
	</g>
	<g>
	</g>
	<g>
	</g>
	<g>
	</g>
	<g>
	</g>
	<g>
	</g>
	<g>
	</g>
	<g>
	</g>
	<g>
	</g>
	<g>
	</g>
	<g>
	</g>
	<g>
	</g>
	<g>
	</g>
	<g>
	</g>
	<g>
	</g>
</g>
</svg>
