<?xml version="1.0" encoding="utf-8"?>
<!-- Generator: Adobe Illustrator 18.1.0, SVG Export Plug-In . SVG Version: 6.00 Build 0)  -->
<!DOCTYPE svg PUBLIC "-//W3C//DTD SVG 1.1//EN" "http://www.w3.org/Graphics/SVG/1.1/DTD/svg11.dtd">
<svg version="1.1" id="Layer_2" xmlns="http://www.w3.org/2000/svg" xmlns:xlink="http://www.w3.org/1999/xlink" x="0px" y="0px"
	 viewBox="0 0 360 360" style="enable-background:new 0 0 360 360;" xml:space="preserve">
<style type="text/css">
	.st0{fill:#D9B130;}
	.st1{fill:#D26830;}
	.st2{fill:none;stroke:#D26830;stroke-miterlimit:10;}
</style>
<path class="st0" d="M61,251L284,73c0,0,14,12,8,23L78,269C78,269,61,272,61,251z"/>
<ellipse transform="matrix(0.7494 -0.6621 0.6621 0.7494 -152.9693 113.0807)" class="st1" cx="72.9" cy="258.6" rx="7" ry="8.8"/>
<path class="st2" d="M80.8,235.2c0,0,21.5,4.9,13.9,20.3"/>
<path class="st2" d="M105.3,215.9c0,0,21.5,4.9,13.9,20.3"/>
<path class="st2" d="M264.2,87.6c0,0,21.5,4.9,13.9,20.3"/>
<ellipse transform="matrix(-0.6822 -0.7311 0.7311 -0.6822 1.4644 463.5309)" cx="101.5" cy="231.4" rx="4" ry="8.1"/>
<ellipse transform="matrix(-0.6822 -0.7311 0.7311 -0.6822 88.9387 441.5851)" cx="140.4" cy="201.5" rx="4" ry="8.1"/>
<ellipse transform="matrix(-0.6822 -0.7311 0.7311 -0.6822 135.7658 428.4874)" cx="161" cy="184.7" rx="4" ry="8.1"/>
<ellipse transform="matrix(-0.6822 -0.7311 0.7311 -0.6822 178.7323 419.3612)" cx="180.5" cy="170.8" rx="4" ry="8.1"/>
<ellipse transform="matrix(-0.6822 -0.7311 0.7311 -0.6822 225.2689 406.6227)" cx="201" cy="154.4" rx="4" ry="8.1"/>
<ellipse transform="matrix(-0.6822 -0.7311 0.7311 -0.6822 267.3626 395.9562)" cx="219.7" cy="139.9" rx="4" ry="8.1"/>
<ellipse transform="matrix(-0.6822 -0.7311 0.7311 -0.6822 310.4375 380.926)" cx="238" cy="123" rx="4" ry="8.1"/>
<g>
</g>
<g>
</g>
<g>
</g>
<g>
</g>
<g>
</g>
<g>
</g>
</svg>
