<?xml version="1.0" encoding="utf-8"?>
<!-- Generator: Adobe Illustrator 18.1.0, SVG Export Plug-In . SVG Version: 6.00 Build 0)  -->
<!DOCTYPE svg PUBLIC "-//W3C//DTD SVG 1.1//EN" "http://www.w3.org/Graphics/SVG/1.1/DTD/svg11.dtd">
<svg version="1.1" xmlns="http://www.w3.org/2000/svg" xmlns:xlink="http://www.w3.org/1999/xlink" x="0px" y="0px"
	 viewBox="0 0 1440 1224" style="enable-background:new 0 0 1440 1224;" xml:space="preserve">
<style type="text/css">
	.st0{opacity:0.67;fill:#F38816;}
	.st1{opacity:0.44;fill:#F0D1AF;}
	.st2{opacity:0.44;fill:#3E0804;}
	.st3{fill:#3E0804;}
	.st4{fill:none;stroke:#FFFFFF;stroke-width:4;stroke-miterlimit:10;}
	.st5{fill:#FFFFFF;}
</style>
<g id="Layer_1">
</g>
<g id="Layer_2">
	<path class="st0" d="M437.7,481.1c0,0-208.8-182.5-355.5,18.8c0,0-80.9,186.2,0,325.4c0,0,118.5,109.1,269,60.2
		c0,0,92.2-50.8,129.8-41.4c0,0,50.6-3.8,86.4,28.2c0,0,133.7,0,143.1-141.1c0,0,37.6-329.2-176.8-238.9
		C533.6,492.4,480.5,511.4,437.7,481.1z"/>
	<ellipse class="st1" cx="480.4" cy="682.1" rx="97.8" ry="98.8"/>
	<ellipse class="st2" cx="480.6" cy="682.6" rx="68.9" ry="67.6"/>
	<polygon class="st3" points="232.6,583 198.7,583 184,615 184,707.3 184,750 225,750 	"/>
	<path class="st3" d="M537.9,645.1l644.7,37l18.8-30.3c0,0,109.1,43.8,167.4,11.8c0,0,58.3,63.3,0,117.3c0,0-114.7-44.5-169.3,0
		l-24.5-30.6l-632.9-37.2C542.2,712.9,560.9,681.1,537.9,645.1z"/>
	<line class="st4" x1="208.1" y1="633.5" x2="1391.4" y2="704.4"/>
	<line class="st4" x1="208.1" y1="647.3" x2="1391.4" y2="718.2"/>
	<line class="st4" x1="208.1" y1="668.6" x2="1391.4" y2="739.5"/>
	<line class="st4" x1="208.1" y1="682.4" x2="1391.4" y2="753.3"/>
	<path class="st5" d="M1237.1,645.1L1237.1,645.1c-7.2,0-13.2-5.9-13.2-13.2v-3.7c0-7.2,5.9-13.2,13.2-13.2l0,0
		c7.2,0,13.2,5.9,13.2,13.2v3.7C1250.3,639.1,1244.4,645.1,1237.1,645.1z"/>
	<path class="st5" d="M1284.8,660.1L1284.8,660.1c-7.2,0-13.2-5.9-13.2-13.2v-3.7c0-7.2,5.9-13.2,13.2-13.2l0,0
		c7.2,0,13.2,5.9,13.2,13.2v3.7C1298,654.1,1292,660.1,1284.8,660.1z"/>
	<path class="st5" d="M1338.7,660.1L1338.7,660.1c-7.2,0-13.2-5.9-13.2-13.2v-3.7c0-7.2,5.9-13.2,13.2-13.2l0,0
		c7.2,0,13.2,5.9,13.2,13.2v3.7C1351.9,654.1,1346,660.1,1338.7,660.1z"/>
	<path class="st5" d="M1232.1,817.5L1232.1,817.5c-7.2,0-13.2-5.9-13.2-13.2v-3.7c0-7.2,5.9-13.2,13.2-13.2l0,0
		c7.2,0,13.2,5.9,13.2,13.2v3.7C1245.3,811.6,1239.4,817.5,1232.1,817.5z"/>
	<path class="st5" d="M1279.1,810.9L1279.1,810.9c-7.2,0-13.2-5.9-13.2-13.2V794c0-7.2,5.9-13.2,13.2-13.2l0,0
		c7.2,0,13.2,5.9,13.2,13.2v3.7C1292.3,804.9,1286.4,810.9,1279.1,810.9z"/>
	<path class="st5" d="M1332.4,817.5L1332.4,817.5c-7.2,0-13.2-5.9-13.2-13.2v-3.7c0-7.2,5.9-13.2,13.2-13.2h0
		c7.2,0,13.2,5.9,13.2,13.2v3.7C1345.6,811.6,1339.7,817.5,1332.4,817.5z"/>
	<g>
	</g>
	<g>
	</g>
	<g>
	</g>
	<g>
	</g>
	<g>
	</g>
	<g>
	</g>
	<g>
	</g>
	<g>
	</g>
	<g>
	</g>
	<g>
	</g>
	<g>
	</g>
	<g>
	</g>
	<g>
	</g>
	<g>
	</g>
	<g>
	</g>
</g>
</svg>
