<?xml version="1.0" encoding="utf-8"?>
<!-- Generator: Adobe Illustrator 18.1.0, SVG Export Plug-In . SVG Version: 6.00 Build 0)  -->
<!DOCTYPE svg PUBLIC "-//W3C//DTD SVG 1.1//EN" "http://www.w3.org/Graphics/SVG/1.1/DTD/svg11.dtd">
<svg version="1.1" id="Layer_2" xmlns="http://www.w3.org/2000/svg" xmlns:xlink="http://www.w3.org/1999/xlink" x="0px" y="0px"
	 viewBox="0 0 117 148.5" style="enable-background:new 0 0 117 148.5;" xml:space="preserve">
<style type="text/css">
	.st0{fill:#FFFFFF;stroke:#000000;stroke-miterlimit:10;}
	.st1{fill:#F48100;stroke:#000000;stroke-miterlimit:10;}
</style>
<path class="st0" d="M33.6,74.9c0,0,6.3,6.5,3.3,23.2c0,0-10.3,29,10.7,30.7c0,0,12.3-15,0-30.7c0,0-5.3-15-0.3-23.2
	C47.2,74.9,40.2,68.4,33.6,74.9z"/>
<path class="st1" d="M31.2,72c0,0,3-9.9,16.3-5.3c0,0,19.3-47-14-54.7C33.6,12.1-0.1,18.3,31.2,72z"/>
<ellipse transform="matrix(0.953 -0.3029 0.3029 0.953 -16.1002 11.5778)" class="st0" cx="29.3" cy="57.7" rx="2.5" ry="4.8"/>
<ellipse transform="matrix(1 -7.981027e-03 7.981027e-03 1 -0.4419 0.2975)" class="st0" cx="37.1" cy="55.5" rx="2.5" ry="4.8"/>
<ellipse transform="matrix(0.9658 0.2593 -0.2593 0.9658 15.9637 -9.7261)" class="st0" cx="44.8" cy="55.6" rx="2.5" ry="4.8"/>
<path class="st0" d="M71.3,84.6c0,0,3.9,8.2-4.3,23c0,0-19.1,24.1,0.2,32.5c0,0,16.5-10.2,9.9-29c0,0-0.2-15.9,7.1-22
	C84.2,89,79.7,80.6,71.3,84.6z"/>
<path class="st1" d="M70,81.1c0,0,6-8.5,17.2,0.3c0,0,33.4-38.3,4.3-56.3C91.5,25.1,57.6,20.2,70,81.1z"/>
<ellipse transform="matrix(0.9998 1.966075e-02 -1.966075e-02 0.9998 1.3302 -1.4171)" class="st0" cx="72.7" cy="66.9" rx="2.5" ry="4.8"/>
<ellipse transform="matrix(0.9494 0.3141 -0.3141 0.9494 25.2533 -21.9661)" class="st0" cx="80.8" cy="67.4" rx="2.5" ry="4.8"/>
<ellipse transform="matrix(0.8311 0.5562 -0.5562 0.8311 53.83 -37.194)" class="st0" cx="88.1" cy="70" rx="2.5" ry="4.8"/>
</svg>
