<?xml version="1.0" encoding="utf-8"?>
<!-- Generator: Adobe Illustrator 18.1.0, SVG Export Plug-In . SVG Version: 6.00 Build 0)  -->
<!DOCTYPE svg PUBLIC "-//W3C//DTD SVG 1.1//EN" "http://www.w3.org/Graphics/SVG/1.1/DTD/svg11.dtd">
<svg version="1.1" id="Layer_1" xmlns="http://www.w3.org/2000/svg" xmlns:xlink="http://www.w3.org/1999/xlink" x="0px" y="0px"
	 viewBox="0 0 612 792" style="enable-background:new 0 0 612 792;" xml:space="preserve">
<style type="text/css">
	.st0{fill:#FFAF4A;stroke:#000000;stroke-miterlimit:10;}
</style>
<path class="st0" d="M227.5,312.2v-188l-121,74v10.9v161.2c-12,1.5-21,6.6-21,12.5c0,7.2,12.8,13,28.6,13c15.8,0,28.7-5.8,28.7-13
	c0-5.7-8.2-10.5-19.2-12.3V209.2l87-56v159.1c-11,1.7-19.6,6.6-19.6,12.4c0,7.2,12.9,13,28.7,13c15.8,0,28.6-5.8,28.6-13
	C248.1,318.7,239.5,313.7,227.5,312.2z"/>
<g>
</g>
<g>
</g>
<g>
</g>
<g>
</g>
<g>
</g>
<g>
</g>
<g>
</g>
<g>
</g>
<g>
</g>
<g>
</g>
<g>
</g>
<g>
</g>
<g>
</g>
<g>
</g>
<g>
</g>
</svg>
