<?xml version="1.0" encoding="utf-8"?>
<!-- Generator: Adobe Illustrator 18.1.0, SVG Export Plug-In . SVG Version: 6.00 Build 0)  -->
<!DOCTYPE svg PUBLIC "-//W3C//DTD SVG 1.1//EN" "http://www.w3.org/Graphics/SVG/1.1/DTD/svg11.dtd">
<svg version="1.1" id="Layer_1" xmlns="http://www.w3.org/2000/svg" xmlns:xlink="http://www.w3.org/1999/xlink" x="0px" y="0px"
	 viewBox="0 0 612 792" style="enable-background:new 0 0 612 792;" xml:space="preserve">
<path d="M366,449.2v-188l-121,74v10.9v161.2c-12,1.5-20.8,6.6-20.8,12.5c0,7.2,12.9,13,28.7,13c15.8,0,28.5-5.8,28.5-13
	c0-5.7-8.4-10.5-19.4-12.3V346.2l87-56v159.1c-11,1.7-19.3,6.6-19.3,12.4c0,7.2,13,13,28.8,13c15.8,0,28.4-5.8,28.4-13
	C386.8,455.7,378,450.7,366,449.2z"/>
<g>
</g>
<g>
</g>
<g>
</g>
<g>
</g>
<g>
</g>
<g>
</g>
<g>
</g>
<g>
</g>
<g>
</g>
<g>
</g>
<g>
</g>
<g>
</g>
<g>
</g>
<g>
</g>
<g>
</g>
</svg>
