<?xml version="1.0" encoding="utf-8"?>
<!-- Generator: Adobe Illustrator 18.1.0, SVG Export Plug-In . SVG Version: 6.00 Build 0)  -->
<!DOCTYPE svg PUBLIC "-//W3C//DTD SVG 1.1//EN" "http://www.w3.org/Graphics/SVG/1.1/DTD/svg11.dtd">
<svg version="1.1" id="Layer_1" xmlns="http://www.w3.org/2000/svg" xmlns:xlink="http://www.w3.org/1999/xlink" x="0px" y="0px"
	 viewBox="0 0 1071.3 963.3" style="enable-background:new 0 0 1071.3 963.3;" xml:space="preserve">
<style type="text/css">
	.st0{fill:#FFFFFF;stroke:#000000;stroke-miterlimit:10;}
	.st1{stroke:#FFFFFF;stroke-miterlimit:10;}
</style>
<g>
	<path d="M-1.8,963.3h1073.1V449.3c0,0-53.7-197.7-283.8-165.2l-139.1-3.6c0,0-37.1-13.3-35.7-140.4c0,0-39-141.2-201.4-114.4
		l-284.9-3.4c0,0-131.2,50-119.9,247.7L-1.8,963.3z"/>
	<rect x="34.9" y="655.5" class="st0" width="81.9" height="271.1"/>
	<rect x="139.4" y="655.5" class="st0" width="81.9" height="271.1"/>
	<rect x="241" y="655.5" class="st0" width="81.9" height="271.1"/>
	<rect x="447.2" y="655.5" class="st0" width="81.9" height="271.1"/>
	<rect x="647.7" y="655.5" class="st0" width="81.9" height="271.1"/>
	<rect x="551.7" y="655.5" class="st0" width="81.9" height="271.1"/>
	<rect x="345.5" y="655.5" class="st0" width="81.9" height="271.1"/>
	<rect x="743.7" y="655.5" class="st0" width="81.9" height="271.1"/>
	<rect x="845.3" y="655.5" class="st0" width="81.9" height="271.1"/>
	<rect x="947" y="655.5" class="st0" width="81.9" height="271.1"/>
	<rect x="92.8" y="655.5" class="st1" width="63.5" height="225.9"/>
	<rect x="304.6" y="655.5" class="st1" width="63.5" height="225.9"/>
	<rect x="503" y="655.5" class="st1" width="63.5" height="225.9"/>
	<rect x="711.9" y="655.5" class="st1" width="63.5" height="225.9"/>
	<rect x="903.9" y="655.5" class="st1" width="63.5" height="225.9"/>
</g>
<g>
</g>
<g>
</g>
<g>
</g>
<g>
</g>
<g>
</g>
<g>
</g>
<g>
</g>
<g>
</g>
<g>
</g>
<g>
</g>
<g>
</g>
<g>
</g>
<g>
</g>
<g>
</g>
<g>
</g>
</svg>
