<?xml version="1.0" encoding="utf-8"?>
<!-- Generator: Adobe Illustrator 18.1.0, SVG Export Plug-In . SVG Version: 6.00 Build 0)  -->
<!DOCTYPE svg PUBLIC "-//W3C//DTD SVG 1.1//EN" "http://www.w3.org/Graphics/SVG/1.1/DTD/svg11.dtd">
<svg version="1.1" id="Layer_1" xmlns="http://www.w3.org/2000/svg" xmlns:xlink="http://www.w3.org/1999/xlink" x="0px" y="0px"
	 viewBox="0 0 1440 1224" style="enable-background:new 0 0 1440 1224;" xml:space="preserve">
<style type="text/css">
	.st0{fill:#7F5800;}
	.st1{fill:#FFFFFF;stroke:#000000;stroke-miterlimit:10;}
	.st2{stroke:#FFFFFF;stroke-miterlimit:10;}
</style>
<path class="st0" d="M182.6,1095.6h1071.1V579.7c0,0-52.7-197.7-282.8-165.2l-138.6-3.6c0,0-36.8-13.3-35.4-140.4
	c0,0-38.9-141.2-201.3-114.4l-284.9-3.4c0,0-131.1,51-119.9,248.7L182.6,1095.6z"/>
<rect x="219.3" y="785.8" class="st1" width="81.9" height="271.1"/>
<rect x="323.7" y="785.8" class="st1" width="81.9" height="271.1"/>
<rect x="425.4" y="785.8" class="st1" width="81.9" height="271.1"/>
<rect x="631.6" y="785.8" class="st1" width="81.9" height="271.1"/>
<rect x="832" y="785.8" class="st1" width="81.9" height="271.1"/>
<rect x="736" y="785.8" class="st1" width="81.9" height="271.1"/>
<rect x="529.9" y="785.8" class="st1" width="81.9" height="271.1"/>
<rect x="928.1" y="785.8" class="st1" width="81.9" height="271.1"/>
<rect x="1029.7" y="785.8" class="st1" width="81.9" height="271.1"/>
<rect x="1131.4" y="785.8" class="st1" width="81.9" height="271.1"/>
<rect x="277.2" y="785.8" class="st2" width="63.5" height="225.9"/>
<rect x="488.9" y="785.8" class="st2" width="63.5" height="225.9"/>
<rect x="687.3" y="785.8" class="st2" width="63.5" height="225.9"/>
<rect x="896.3" y="785.8" class="st2" width="63.5" height="225.9"/>
<rect x="1088.3" y="785.8" class="st2" width="63.5" height="225.9"/>
<g>
</g>
<g>
</g>
<g>
</g>
<g>
</g>
<g>
</g>
<g>
</g>
<g>
</g>
<g>
</g>
<g>
</g>
<g>
</g>
<g>
</g>
<g>
</g>
<g>
</g>
<g>
</g>
<g>
</g>
</svg>
