<?xml version="1.0" encoding="utf-8"?>
<!-- Generator: Adobe Illustrator 18.1.0, SVG Export Plug-In . SVG Version: 6.00 Build 0)  -->
<!DOCTYPE svg PUBLIC "-//W3C//DTD SVG 1.1//EN" "http://www.w3.org/Graphics/SVG/1.1/DTD/svg11.dtd">
<svg version="1.1" xmlns="http://www.w3.org/2000/svg" xmlns:xlink="http://www.w3.org/1999/xlink" x="0px" y="0px"
	 viewBox="0 0 1440 1224" style="enable-background:new 0 0 1440 1224;" xml:space="preserve">
<style type="text/css">
	.st0{display:none;}
	.st1{fill:#F98C1B;}
	.st2{opacity:0.46;fill:#4E1516;}
</style>
<g id="Layer_1" class="st0">
	
		<image style="display:inline;overflow:visible;opacity:0.46;" width="450" height="449" xlink:href="../../../../Library/Caches/TemporaryItems/stock-vector--musical-instruments-vector-illustrations-flat-icons-and-elements-set-195300647-1.jpg"  transform="matrix(2.8018 0 0 2.8018 190 -160)">
	</image>
</g>
<g id="Layer_2">
	<path class="st1" d="M474,73.2c0,0,75.2,65.8,191.6,28.2c0,0,212.3-78.9,118.4,165.3l-159.7,745.9c0,0-37.6,180.4,129.6,163.5
		c0,0,95.8,1.9,118.4-199.2c0,0,18.8-137.2,82.7-148.4c0,0,52.6-13.2,75.2,13.2l-118.4-186c0,0,3.8,30.1-37.6,65.8
		c0,0-63.9,77-84.5,240.5c0,0-30.1,139-37.6,11.3l15-182.2h26.3v-35.7h-16.9v-22.5h16.9v-30.1l-15-1.9l3.8-24.4l24.4-1.9v-26.3
		h-16.9l1.9-22.9h20.7v-27.8l-15-1.9l54.5-439.6c0,0,22.5-110.9-122.1-109c0,0-139,48.8-169.1,28.2L474,73.2z"/>
	<path class="st2" d="M560.4,75v35.1c0,0-80.8-21-86.4-37L560.4,75z"/>
	<path class="st2" d="M651.2,985c0,0-47.6,152.8,67.6,167.8C718.9,1152.9,642,1126.4,651.2,985z"/>
</g>
</svg>
