<?xml version="1.0" encoding="utf-8"?>
<!-- Generator: Adobe Illustrator 18.1.0, SVG Export Plug-In . SVG Version: 6.00 Build 0)  -->
<!DOCTYPE svg PUBLIC "-//W3C//DTD SVG 1.1//EN" "http://www.w3.org/Graphics/SVG/1.1/DTD/svg11.dtd">
<svg version="1.1" xmlns="http://www.w3.org/2000/svg" xmlns:xlink="http://www.w3.org/1999/xlink" x="0px" y="0px"
	 viewBox="0 0 1440 1224" style="enable-background:new 0 0 1440 1224;" xml:space="preserve">
<style type="text/css">
	.st0{fill:#FFD24A;}
	.st1{fill:#844030;}
	.st2{fill:#ED835B;}
	.st3{fill:none;stroke:#844030;stroke-width:5;stroke-miterlimit:10;}
</style>
<g id="Layer_1">
</g>
<g id="Layer_2">
	
		<ellipse transform="matrix(0.9056 -0.4241 0.4241 0.9056 -49.0923 191.8863)" class="st0" cx="406.6" cy="206.2" rx="111.2" ry="93"/>
	
		<ellipse transform="matrix(0.2959 -0.9552 0.9552 0.2959 -250.0986 528.3459)" class="st0" cx="233.3" cy="433.8" rx="111.2" ry="93"/>
	
		<ellipse transform="matrix(0.1062 -0.9943 0.9943 0.1062 -476.0858 847.3694)" class="st0" cx="233.3" cy="688.5" rx="111.2" ry="93"/>
	
		<ellipse transform="matrix(-0.3403 -0.9403 0.9403 -0.3403 -453.5388 1513.9757)" class="st0" cx="304.3" cy="916.1" rx="111.2" ry="93"/>
	
		<ellipse transform="matrix(0.8156 0.5786 -0.5786 0.8156 709.7859 -86.1841)" class="st0" cx="490.1" cy="1070.6" rx="111.2" ry="93"/>
	
		<ellipse transform="matrix(0.9761 -0.2174 0.2174 0.9761 -222.8018 195.2848)" class="st0" cx="776.1" cy="1110.2" rx="111.2" ry="93"/>
	
		<ellipse transform="matrix(0.7773 -0.6291 0.6291 0.7773 -402.7722 873.7667)" class="st0" cx="1032.9" cy="1005.9" rx="111.2" ry="93"/>
	
		<ellipse transform="matrix(0.4766 -0.8791 0.8791 0.4766 -105.2329 1459.1639)" class="st0" cx="1172.8" cy="818" rx="111.2" ry="93"/>
	
		<ellipse transform="matrix(2.516953e-02 0.9997 -0.9997 2.516953e-02 1734.7018 -664.9462)" class="st0" cx="1208.3" cy="557" rx="111.2" ry="93"/>
	
		<ellipse transform="matrix(0.644 0.765 -0.765 0.644 652.9005 -752.6602)" class="st0" cx="1135.2" cy="325.3" rx="111.2" ry="93"/>
	
		<ellipse transform="matrix(0.9306 0.3659 -0.3659 0.9306 119.1092 -328.6335)" class="st0" cx="926.5" cy="149.9" rx="111.2" ry="93"/>
	<ellipse class="st0" cx="665.5" cy="112.3" rx="111.2" ry="93"/>
	<circle class="st1" cx="701.3" cy="619.4" r="506.1"/>
	<circle class="st2" cx="702.2" cy="620.1" r="469.7"/>
	<path class="st3" d="M328.1,221.2c0,0,8.3-111.3,130.9-71.3"/>
	<path class="st3" d="M232.4,377c0,0-114.9,12.6-37.2,107.9"/>
	<path class="st3" d="M595.6,71.9c0,0,37.5-63,144.8,0"/>
	<path class="st3" d="M867.5,109.7c0,0,76.2-49.2,136.2,40.7"/>
	<path class="st3" d="M1115.2,245.6c0,0,122.4,46.2,57.6,131.4"/>
	<path class="st3" d="M1208.3,484.9c0,0,119.8,38.9,27.9,135.2"/>
	<path class="st3" d="M1208.3,770.8c0,0,78.1,60.7-36.4,134.4"/>
	<path class="st3" d="M1003.6,1070.6c0,0,118.7,15.2,111.6-99.5"/>
	<path class="st3" d="M717.7,1170.1c0,0,88.3,49.4,149.8-44.6"/>
	<path class="st3" d="M427.2,1071.2c0,0,10.5,91,127.1,54.3"/>
	<path class="st3" d="M233.3,884.3c0,0-5.4,94.6,108.8,136.3"/>
	<path class="st3" d="M195.2,643.8c0,0-91,68.1,13.8,127.1"/>
	<g>
	</g>
	<g>
	</g>
	<g>
	</g>
	<g>
	</g>
	<g>
	</g>
	<g>
	</g>
	<g>
	</g>
	<g>
	</g>
	<g>
	</g>
	<g>
	</g>
	<g>
	</g>
	<g>
	</g>
	<g>
	</g>
	<g>
	</g>
	<g>
	</g>
</g>
</svg>
