<?xml version="1.0" encoding="utf-8"?>
<!-- Generator: Adobe Illustrator 18.1.0, SVG Export Plug-In . SVG Version: 6.00 Build 0)  -->
<!DOCTYPE svg PUBLIC "-//W3C//DTD SVG 1.1//EN" "http://www.w3.org/Graphics/SVG/1.1/DTD/svg11.dtd">
<svg version="1.1" xmlns="http://www.w3.org/2000/svg" xmlns:xlink="http://www.w3.org/1999/xlink" x="0px" y="0px"
	 viewBox="0 0 1440 1224" style="enable-background:new 0 0 1440 1224;" xml:space="preserve">
<style type="text/css">
	.st0{fill:#FFD24A;}
	.st1{fill:#844030;}
	.st2{fill:#ED835B;}
	.st3{fill:none;stroke:#844030;stroke-width:5;stroke-miterlimit:10;}
</style>
<g id="Layer_1">
</g>
<g id="Layer_2">
	
		<ellipse transform="matrix(0.9056 -0.4241 0.4241 0.9056 -166.9226 310.3105)" class="st0" cx="613.8" cy="530.2" rx="53.3" ry="44.6"/>
	
		<ellipse transform="matrix(0.2959 -0.9552 0.9552 0.2959 -236.8546 957.1201)" class="st0" cx="530.8" cy="639.2" rx="53.3" ry="44.6"/>
	
		<ellipse transform="matrix(0.1062 -0.9943 0.9943 0.1062 -282.5203 1208.1184)" class="st0" cx="530.8" cy="761.2" rx="53.3" ry="44.6"/>
	
		<ellipse transform="matrix(-0.3403 -0.9403 0.9403 -0.3403 -61.2966 1697.4312)" class="st0" cx="564.8" cy="870.2" rx="53.3" ry="44.6"/>
	
		<ellipse transform="matrix(0.8156 0.5786 -0.5786 0.8156 666.8539 -204.176)" class="st0" cx="653.8" cy="944.2" rx="53.3" ry="44.6"/>
	
		<ellipse transform="matrix(0.9761 -0.2174 0.2174 0.9761 -190.4887 194.9521)" class="st0" cx="790.8" cy="963.2" rx="53.3" ry="44.6"/>
	
		<ellipse transform="matrix(0.7773 -0.6291 0.6291 0.7773 -371.0252 778.186)" class="st0" cx="913.8" cy="913.2" rx="53.3" ry="44.6"/>
	
		<ellipse transform="matrix(0.4766 -0.8791 0.8791 0.4766 -210.3637 1293.1024)" class="st0" cx="980.8" cy="823.2" rx="53.3" ry="44.6"/>
	
		<ellipse transform="matrix(2.516953e-02 0.9997 -0.9997 2.516953e-02 1670.665 -316.8229)" class="st0" cx="997.8" cy="698.2" rx="53.3" ry="44.6"/>
	
		<ellipse transform="matrix(0.644 0.765 -0.765 0.644 791.9182 -527.4933)" class="st0" cx="962.8" cy="587.2" rx="53.3" ry="44.6"/>
	
		<ellipse transform="matrix(0.9306 0.3659 -0.3659 0.9306 243.9937 -280.8246)" class="st0" cx="862.8" cy="503.2" rx="53.3" ry="44.6"/>
	<ellipse class="st0" cx="737.8" cy="485.2" rx="53.3" ry="44.6"/>
	<circle class="st1" cx="754.9" cy="728.1" r="242.4"/>
	<circle class="st2" cx="755.3" cy="728.4" r="225"/>
	<path class="st3" d="M576.2,537.4c0,0,4-53.3,62.7-34.2"/>
	<path class="st3" d="M530.3,612c0,0-55,6-17.8,51.7"/>
	<path class="st3" d="M704.3,465.9c0,0,17.9-30.2,69.3,0"/>
	<path class="st3" d="M834.5,484c0,0,36.5-23.6,65.2,19.5"/>
	<path class="st3" d="M953.2,549.1c0,0,58.6,22.1,27.6,62.9"/>
	<path class="st3" d="M997.8,663.7c0,0,57.4,18.6,13.4,64.7"/>
	<path class="st3" d="M997.8,800.7c0,0,37.4,29.1-17.4,64.4"/>
	<path class="st3" d="M899.7,944.2c0,0,56.9,7.3,53.5-47.7"/>
	<path class="st3" d="M762.8,991.9c0,0,42.3,23.6,71.7-21.3"/>
	<path class="st3" d="M623.7,944.5c0,0,5,43.6,60.9,26"/>
	<path class="st3" d="M530.8,855c0,0-2.6,45.3,52.1,65.3"/>
	<path class="st3" d="M512.5,739.8c0,0-43.6,32.6,6.6,60.9"/>
	<g>
	</g>
	<g>
	</g>
	<g>
	</g>
	<g>
	</g>
	<g>
	</g>
	<g>
	</g>
	<g>
	</g>
	<g>
	</g>
	<g>
	</g>
	<g>
	</g>
	<g>
	</g>
	<g>
	</g>
	<g>
	</g>
	<g>
	</g>
	<g>
	</g>
</g>
</svg>
