<?xml version="1.0" encoding="utf-8"?>
<!-- Generator: Adobe Illustrator 18.1.0, SVG Export Plug-In . SVG Version: 6.00 Build 0)  -->
<!DOCTYPE svg PUBLIC "-//W3C//DTD SVG 1.1//EN" "http://www.w3.org/Graphics/SVG/1.1/DTD/svg11.dtd">
<svg version="1.1" xmlns="http://www.w3.org/2000/svg" xmlns:xlink="http://www.w3.org/1999/xlink" x="0px" y="0px"
	 viewBox="0 0 1471.3 1219.3" style="enable-background:new 0 0 1471.3 1219.3;" xml:space="preserve">
<style type="text/css">
	.st0{fill:#F58711;stroke:#000000;stroke-width:2;stroke-miterlimit:10;}
</style>
<g id="Layer_1">
</g>
<g id="Layer_2">
	<path class="st0" d="M3.2,470.9v102.2l42.6-34.1l176.1,2.8l17,19.9h56.8c0,0-139.2,267,255.6,213v48.3h45.4v-48.3h36.9v48.3h39.8
		v-48.3h45.4v48.3h39.8v-48.3H1250c0,0,142-31.2,71-201.7c0,0,107.9,17,139.2,127.8v-355c0,0-73.8,150.5-187.5,133.5l-511.2-5.7
		v-25.6l-17.8-2.1v-29.8l19.2-0.7v-9.9l-51.1-2.1v7.1l19.9,3.6v32.7h-17v29.8h-34.8l0.7-29.8l-22-0.7V412h21.3v-8.5h-51.1v9.2h19.9
		v30.5l-18.5,0.7v31.2l-32,0.7l-1.4-30.5h-24.1l0.7-32h22v-10.7h-54v8.5l22.7,0.7v32.7h-17.8v30.5l-309.6,2.1V495l-198.1,0.7
		L3.2,470.9z"/>
	<path d="M548.1,560.7v85.2c0,0-161.9-16-139.5,93.7c0,0-132.1-2.1-90.5-138.5C318.1,601.2,326.6,532,548.1,560.7"/>
	<rect x="595" y="559.7" width="34.1" height="91.6"/>
	<rect x="680.2" y="559.7" width="34.1" height="91.6"/>
	<rect x="595" y="686.4" width="40.5" height="53.3"/>
	<rect x="680.2" y="686.4" width="39.4" height="53.3"/>
	<path d="M548.1,692.8v46.9h-87.3c0,0-27.7-27.7,0-46.9H548.1z"/>
	<path d="M764.3,559.7v87l456.9,4.6c0,0,60.9,26.6,50.1,73.5c0,0,90.5-117.2-35.1-165.1H764.3z"/>
	<path d="M764.3,686.4v53.3h451.6c0,0,32-34.1,0-53.3H764.3z"/>
</g>
</svg>
