<?xml version="1.0" encoding="utf-8"?>
<!-- Generator: Adobe Illustrator 18.1.0, SVG Export Plug-In . SVG Version: 6.00 Build 0)  -->
<!DOCTYPE svg PUBLIC "-//W3C//DTD SVG 1.1//EN" "http://www.w3.org/Graphics/SVG/1.1/DTD/svg11.dtd">
<svg version="1.1" xmlns="http://www.w3.org/2000/svg" xmlns:xlink="http://www.w3.org/1999/xlink" x="0px" y="0px"
	 viewBox="0 0 1440 1440" style="enable-background:new 0 0 1440 1440;" xml:space="preserve">
<style type="text/css">
	.st0{fill:#7F441D;stroke:#000000;stroke-width:18;stroke-miterlimit:10;}
	.st1{fill:none;stroke:#000000;stroke-width:3;stroke-miterlimit:10;}
	.st2{fill:none;stroke:#000000;stroke-width:5;stroke-miterlimit:10;}
	.st3{fill:none;stroke:#000000;stroke-width:10;stroke-miterlimit:10;}
</style>
<g id="Inside_of_violin">
	<g id="body">
		<path class="st0" d="M166.4,165.4c0,0,13.2-105.7-69-63.1c0,0-66.1-11.7-19.1,99.8c0,0-36.7,54.3,11.7,70.5
			c0,0,41.1,79.3,55.8-10.3l27.9,17.6c0,0,2.9-60.2,44-7.3l171.8,179.1c0,0-135.1,58.7-79.3,270.2c0,0,52.9,76.4,121.9,123.3
			l10.3,49.9c0,0,58.7-58.7,130.7,0c0,0,61.7,57.3-7.3,88.1v95.4c0,0,49.9-19.1,77.8,77.8c0,0,38.2,226.1,277.5,202.6
			c0,0,370-49.9,368.5-393.5c0,0,20.6-152.7-161.5-210c0,0-85.2-36.7-82.2-86.6c0,0-66.1,95.4-189.4-29.4l10.3-10.3l-1.5-83.7
			c0,0-30.8,5.9-91-114.5c0,0-105.7-124.8-283.4-36.7L272.1,202.1c0,0,33.8-60.2-23.5-64.6c0,0-23.5-45.5-47,25L166.4,165.4z"/>
	</g>
</g>
<g id="Linework">
	<path class="st1" d="M88.6,111.1c0,0,69,25,26.4,88.1c0,0,61.7-14.7,79.3,29.4L626,685.2c0,0,52.9-83.7,104.2-63.1L251.5,196.2
		c0,0-30.8-41.1-91-30.8c0,0,22-49.9-38.2-74.9C122.3,90.5,135.5,108.1,88.6,111.1z"/>
	<g id="strings">
		<polygon class="st1" points="203.1,215.3 855,883.4 874.1,865.8 761,717.5 675.9,639.7 219.2,208 232.4,200.6 693.2,622.8 
			783.1,705.7 897.6,855.5 919.6,843.7 815.4,701.3 245.1,189.4 		"/>
	</g>
	<path class="st1" d="M843.3,755.6l-113.1,66.1l-19.1-52.9c0,0,48.5-88.1,132.1-66.1V755.6z"/>
	<path class="st1" d="M843.3,901c0,0,49.9-57.3,94-57.3c0,0,126.3,259.9,221.7,296.6c0,0-48.5,44-61.7,47
		C1097.3,1187.3,949,890.7,843.3,901z"/>
	<path class="st1" d="M581.9,745.4c0,0,145.4-8.8,129.2,171.8"/>
	<path class="st1" d="M797.9,621.8c0,0,25,135.1,155.6,126.3"/>
	<path class="st1" d="M409.4,464.9c0,0-156.4,91-46.3,220.2c0,0,110.1,70.5,101.3,86.6c0,0,122.6-32.4,155.2,79.4
		c0.7,2.3,1.3,4.7,1.9,7.2c29.4,120.4,0,107.2-8.8,124.8c0,0,49.9,47,52.9,85.2c0,0,55.8,223.2,254,190.9
		c0,0,320.1-57.3,352.4-314.2c0,0-4.4-113.1-142.4-171.8c0,0-79.3-29.4-88.1-60.2c0,0-64.6,57.3-185-38.2c0,0-85.2-66.1-32.3-123.3
		c0,0-29.4,2.9-47-94c0,0-94-123.3-271.6-45.5"/>
	<path class="st1" d="M297.1,604.4c0,0,26.4,75.2,57.3,94.8c0,0,111.6,63.7,94,101.9c0,0,69-58.7,133.6,20.6c0,0,89.6,113.1-8.8,163
		c0,0,64.6,4.4,126.3,202.6c0,0,111.6,161.5,340.6,52.9c0,0,230.5-94,257-305.4"/>
	<path class="st1" d="M863.8,547.1c0,0-73.2,24.2-20.6,89.6"/>
	<ellipse class="st1" cx="88.6" cy="159" rx="20.6" ry="30.3"/>
	<ellipse class="st1" cx="266.4" cy="165.5" rx="16.9" ry="30.1"/>
	<ellipse class="st1" cx="232.7" cy="147.8" rx="16.9" ry="30.1"/>
	<ellipse class="st1" cx="115.4" cy="272.2" rx="16.9" ry="30.1"/>
	<ellipse class="st1" cx="88.6" cy="235.9" rx="16.9" ry="30.1"/>
	<path class="st1" d="M109.1,227.1l29.4-21.3c0,0,14.7,2.2,0,21.3l-29.4,17.3"/>
	<path class="st1" d="M132.3,244.3l30.4-15.8c0,0,11.7,4.5,3.7,13.6l-27.9,16.5"/>
</g>
<g id="bow">
	<g id="bow_1_">
		<polyline class="st2" points="1423.7,482.8 436.4,670.5 415.5,652.8 		"/>
		<line class="st3" x1="415.5" y1="652.8" x2="1423.7" y2="482.8"/>
	</g>
</g>
</svg>
